<?xml version="1.0" encoding="utf-8"?>
<!-- Generator: Adobe Illustrator 18.1.0, SVG Export Plug-In . SVG Version: 6.00 Build 0)  -->
<svg version="1.2" baseProfile="tiny" id="Icons" xmlns="http://www.w3.org/2000/svg" xmlns:xlink="http://www.w3.org/1999/xlink"
	 x="0px" y="0px" viewBox="0 0 73.4 54.9" xml:space="preserve">
<g>
	<path fill="#666666" d="M31.6,54.9c-0.5,0-1.1-0.1-1.7-0.5c-0.9-0.5-1.5-1.3-1.6-2.2c-0.3-2.4,2.1-5.4,4.2-7.5l1.4,1.4
		c-2.4,2.4-3.8,4.6-3.6,5.8c0,0.2,0.1,0.5,0.6,0.8c0.8,0.5,1.3,0.2,2.5-1c0.8-0.8,1.7-1.8,3.1-1.8c1.3,0,2.3,1,3.1,1.8
		c1.2,1.2,1.6,1.5,2.5,1c0.5-0.3,0.6-0.5,0.6-0.8c0.2-1.2-1.2-3.4-3.6-5.8l1.4-1.4c2.1,2.1,4.5,5.1,4.2,7.5
		c-0.1,0.9-0.7,1.7-1.6,2.2C40.6,55.7,39,54.1,38,53c-0.6-0.6-1.1-1.2-1.6-1.2s-1,0.6-1.6,1.2C34,53.8,33,54.9,31.6,54.9z"/>
	<path fill="#666666" d="M41.9,0.2C40-0.2,38.3,0,36.5,0.5c-3.7,0.9-5.1,4.6-4.7,8.2c0.4,3.1,2.4,6,5,7.5c1.6,0.9,3.5,1.2,5.2,1.3
		c-1.9-1.5-3.2-6.4-1.9-8.6c0.4,1.3,1.1,2.9,2.3,3.7c1.4,0.9,2.8,1.4,4.5,1.6c-1.6-1.4-3.2-3.5-2.9-5.7c0.1-1,0.5-1.7,1.2-3.2
		C46.5,2.3,43.9,0.5,41.9,0.2z"/>
	<path fill="#FFFFFF" d="M55.2,31.6h-0.4v-3.1h2.7v-2h-2.7v-1.7h-2v1.7h-1.5v-1.7h-2v1.7H49c-1.9,0-3.5,1.6-3.5,3.5s1.6,3.5,3.5,3.5
		h0.3v2.8h-2.5v2h2.5v2.2h2v-2.2h1.5v2.2h2v-2.2h0.4c1.9,0,3.4-1.5,3.4-3.4C58.6,33.2,57.1,31.6,55.2,31.6z M52.8,28.6v3.1h-1.5
		v-3.1H52.8z M49,31.6c-0.8,0-1.5-0.7-1.5-1.5s0.7-1.5,1.5-1.5h0.3v3.1H49z M51.3,36.4v-2.8h1.5v2.8H51.3z M55.2,36.4h-0.4v-2.8h0.4
		c0.8,0,1.4,0.6,1.4,1.4S56,36.4,55.2,36.4z"/>
	<path fill="#FFFFFF" d="M24.4,31.6H24v-3.1h2.7v-2H24v-1.7h-2v1.7h-1.5v-1.7h-2v1.7h-0.3c-1.9,0-3.5,1.6-3.5,3.5s1.6,3.5,3.5,3.5
		h0.3v2.8h-2.5v2h2.5v2.2h2v-2.2H22v2.2h2v-2.2h0.4c1.9,0,3.4-1.5,3.4-3.4C27.8,33.2,26.3,31.6,24.4,31.6z M22,28.6v3.1h-1.5v-3.1
		H22z M18.2,31.6c-0.8,0-1.5-0.7-1.5-1.5s0.7-1.5,1.5-1.5h0.3v3.1H18.2z M20.5,36.4v-2.8H22v2.8H20.5z M24.4,36.4H24v-2.8h0.4
		c0.8,0,1.4,0.6,1.4,1.4S25.2,36.4,24.4,36.4z"/>
	<path fill="#666666" d="M73.3,25.3c-0.2-1.1-0.6-1.9-1-2.5c-2.1-2.7-4.9-3.1-7.5-1.1l-3.2,2.4c-2.4-2.5-5.7-4.1-9.5-4.1
		c-5.8,0-10.6,3.8-12.3,9c-0.9-0.6-2-1-3.1-1c-1.2,0-2.2,0.4-3.1,1c-1.7-5.2-6.6-8.9-12.3-8.9c-3.7,0-7.1,1.6-9.5,4.2l-3.2-2.4
		c-2.6-2-5.4-1.6-7.5,1.1c-0.4,0.6-0.8,1.4-1,2.5c-0.2,0.8,0.3,1.6,1.1,1.8C2,27.2,2.8,26.7,3,25.9c0.2-0.9,0.4-1.2,0.4-1.3
		c1.2-1.6,2.2-1.4,3.3-0.5l3.3,2.4c-1.1,1.9-1.7,4.1-1.7,6.4c0,7.2,5.8,13,13,13c7,0,12.8-5.6,13-12.6h0c0-1.3,1.1-2.4,2.4-2.4
		c1.3,0,2.4,1.1,2.4,2.4h0.1c0.2,7,5.9,12.6,13,12.6c7.2,0,13-5.8,13-13c0-2.3-0.6-4.5-1.7-6.4l3.3-2.4c1.1-0.8,2-1.1,3.3,0.5
		c0,0,0.2,0.3,0.4,1.3c0.2,0.8,1,1.3,1.8,1.1C73,26.9,73.5,26.1,73.3,25.3z M21.2,42.9c-5.5,0-10-4.5-10-10s4.5-10,10-10
		c5.5,0,10,4.5,10,10S26.8,42.9,21.2,42.9z M52.2,42.9c-5.5,0-10-4.5-10-10s4.5-10,10-10s10,4.5,10,10S57.7,42.9,52.2,42.9z"/>
</g>
</svg>
