<?xml version="1.0" encoding="utf-8"?>
<!-- Generator: Adobe Illustrator 18.1.0, SVG Export Plug-In . SVG Version: 6.00 Build 0)  -->
<svg version="1.2" baseProfile="tiny" id="Icons" xmlns="http://www.w3.org/2000/svg" xmlns:xlink="http://www.w3.org/1999/xlink"
	 x="0px" y="0px" viewBox="0 0 61 63.7" xml:space="preserve">
<g>
	<path fill="#666666" d="M46.5,48.1l-1.1-0.7c0-1.1-0.5-2.1-1.5-2.7c-1-0.6-2.2-0.5-3.1,0l-2.3-1.3l1.2-2.2c0.4-0.7,0.2-1.6-0.5-2
		C39,39.1,38.7,39,38.4,39v-4.9l0.1,0c0.3,0,0.5-0.1,0.7-0.2c0.7-0.4,1-1.3,0.5-2l-1.2-2.1l2.3-1.3c0.9,0.5,2.1,0.6,3.1,0
		c1-0.6,1.5-1.6,1.5-2.7l1.1-0.7c0.7-0.4,1-1.3,0.5-2c-0.4-0.7-1.3-1-2-0.5l-1.1,0.7c-0.9-0.5-2.1-0.6-3.1,0s-1.5,1.6-1.5,2.7
		L37,27.1L35.8,25c-0.4-0.7-1.3-1-2-0.5c-0.3,0.1-0.4,0.4-0.6,0.6l-4.3-2.5c0.1-0.2,0.2-0.5,0.2-0.8l0,0l0,0c0-0.8-0.7-1.5-1.5-1.5
		h-2.5v-2.6c0.9-0.5,1.6-1.5,1.6-2.7l0,0l0,0c0-1.1-0.6-2.1-1.6-2.7V11c0-0.8-0.7-1.5-1.5-1.5s-1.5,0.7-1.5,1.5v1.3
		c-0.9,0.5-1.6,1.5-1.6,2.7l0,0l0,0c0,1.1,0.6,2.1,1.6,2.7v2.6h-2.5c-0.8,0-1.5,0.7-1.5,1.5l0,0l0,0c0,0.3,0.1,0.6,0.2,0.8L14.1,25
		c-0.1-0.2-0.3-0.4-0.6-0.6c-0.7-0.4-1.6-0.2-2,0.5l-1.2,2.2L8,25.8c0-1.1-0.5-2.1-1.5-2.7c-1-0.6-2.2-0.5-3.1,0l-1.2-0.7
		c-0.7-0.4-1.6-0.2-2,0.5c-0.4,0.7-0.2,1.6,0.5,2l1.2,0.7c0,1.1,0.5,2.1,1.5,2.7s2.2,0.5,3.1,0l2.3,1.3l-1.2,2.1
		c-0.4,0.7-0.2,1.6,0.5,2c0.2,0.1,0.5,0.2,0.7,0.2l0,0V39c-0.3,0-0.5,0.1-0.8,0.2c-0.7,0.4-1,1.3-0.5,2l1.2,2.1l-2.3,1.3
		c-0.9-0.5-2.1-0.6-3.1,0c-1,0.6-1.5,1.6-1.5,2.7l-1.2,0.7c-0.7,0.4-1,1.3-0.5,2c0.3,0.5,0.8,0.8,1.3,0.8c0.3,0,0.5-0.1,0.7-0.2
		L3.4,50c0.9,0.5,2.1,0.6,3.1,0c1-0.6,1.5-1.6,1.5-2.7l2.3-1.3l1.2,2.1c0.3,0.5,0.8,0.8,1.3,0.8c0.3,0,0.5-0.1,0.7-0.2
		c0.3-0.1,0.4-0.4,0.6-0.6l4.3,2.5c-0.1,0.2-0.2,0.5-0.2,0.8l0,0l0,0c0,0.8,0.7,1.5,1.5,1.5h2.5v2.6c-0.9,0.5-1.6,1.5-1.6,2.7l0,0
		l0,0c0,1.1,0.6,2.1,1.6,2.7v1.3c0,0.8,0.7,1.5,1.5,1.5s1.5-0.7,1.5-1.5v-1.3c0.9-0.5,1.6-1.5,1.6-2.7l0,0l0,0
		c0-1.1-0.6-2.1-1.6-2.7v-2.6h2.5c0.8,0,1.5-0.7,1.5-1.5l0,0l0,0c0-0.3-0.1-0.6-0.2-0.8l4.3-2.5c0.1,0.2,0.3,0.5,0.6,0.6
		c0.2,0.1,0.5,0.2,0.7,0.2c0.5,0,1-0.3,1.3-0.8L37,46l2.3,1.3c0,1.1,0.5,2.1,1.5,2.7c1,0.6,2.2,0.5,3.1,0l1.2,0.7
		c0.2,0.1,0.5,0.2,0.7,0.2c0.5,0,1-0.3,1.3-0.8C47.5,49.4,47.3,48.5,46.5,48.1z M26.1,49.9h-1v-1.7l7.8-4.5l1.5,0.8L34,45.4
		L26.1,49.9z M13.4,45.4l-0.5-0.9l1.5-0.8l7.8,4.5v1.7h-1L13.4,45.4z M21.2,23.3h1v1.7l-7.8,4.5l-1.5-0.8l0.5-0.9L21.2,23.3z
		 M34,27.8l0.5,0.8L33,29.5l-7.8-4.5v-1.7h1L34,27.8z M11.4,41.9l-0.5-0.9v-9l0.5-0.9l1.5,0.8v9L11.4,41.9z M15.8,33.8l2.8,1.6v2.3
		l-2.8,1.6V33.8z M26.3,33.3l-1.1-0.7v-4.3l4.8,2.8L26.3,33.3z M22.2,32.7L21,33.3l-3.7-2.1l4.8-2.8V32.7z M19.3,40.8l2.9,1.7v2.3
		L17.3,42L19.3,40.8z M25.2,42.5l2.9-1.7l2,1.1l-4.8,2.8V42.5z M28.7,37.7v-2.3l2.8-1.6v5.6L28.7,37.7z M34.5,41.1v-9l1.5-0.8
		l0.5,0.8v9.1l-0.5,0.8L34.5,41.1z"/>
	<path fill="#FFFFFF" d="M60.4,14l-1.4-0.8V7.4l1.4-0.8c0.5-0.3,0.7-1,0.4-1.5c-0.3-0.5-1-0.7-1.5-0.4L58,5.6l-5-2.9V1.1
		C53,0.5,52.5,0,51.9,0s-1.1,0.5-1.1,1.1v1.6l-5,2.9l-1.4-0.8c-0.5-0.3-1.2-0.1-1.5,0.4s-0.1,1.2,0.4,1.5l1.4,0.8v5.8L43.3,14
		c-0.5,0.3-0.7,1-0.4,1.5c0.2,0.3,0.6,0.5,0.9,0.5c0.2,0,0.4,0,0.5-0.1l1.4-0.8l5,2.9v1.6c0,0.6,0.5,1.1,1.1,1.1s1.1-0.5,1.1-1.1V18
		l5-2.9l1.4,0.8c0.2,0.1,0.4,0.1,0.5,0.1c0.4,0,0.7-0.2,0.9-0.5C61.1,15,61,14.3,60.4,14z M57.6,12.4l-1.9-1.1V9.4l1.9-1.1V12.4z
		 M56.5,6.4l-1.9,1.1l-1.7-1V4.3L56.5,6.4z M50.8,4.3v2.2l-1.7,1l-1.9-1.1L50.8,4.3z M46.1,8.3l1.9,1.1v1.9l-1.9,1.1V8.3z
		 M47.2,14.3l1.9-1.1l1.7,1v2.2L47.2,14.3z M53,16.4v-2.2l1.7-1l1.9,1.1L53,16.4z"/>
</g>
</svg>
