<?xml version="1.0" encoding="utf-8"?>
<!-- Generator: Adobe Illustrator 18.1.0, SVG Export Plug-In . SVG Version: 6.00 Build 0)  -->
<svg version="1.2" baseProfile="tiny" id="Icons" xmlns="http://www.w3.org/2000/svg" xmlns:xlink="http://www.w3.org/1999/xlink"
	 x="0px" y="0px" viewBox="0 0 52.8 66.1" xml:space="preserve">
<g>
	<path fill="#FFFFFF" d="M19.9,66.1C6.7,66.1,0,61.1,0,51.4l0-16.8c0-3.3,2.7-6,6-6s6,2.7,6,6v12.7h15.7V34.6c0-1.6,0.6-3.1,1.8-4.3
		c1.1-1.1,2.6-1.8,4.3-1.8c3.3,0,6,2.7,6,6v16.8C39.8,61.1,33.1,66.1,19.9,66.1z M3,46.4l0,5.1c0,2.9,0,11.6,16.9,11.6
		c16.9,0,16.9-8.8,16.9-11.6V34.6c0-1.7-1.4-3-3-3s-3,1.4-3,3l0,15.7H9V34.6c0-1.7-1.4-3-3-3s-3,1.4-3,3V46.4z"/>
	<path fill="#666666" d="M41.6,25.7c0-4-2-7.7-5.4-9.9c-0.7-0.5-0.9-1.4-0.4-2.1c0.5-0.7,1.4-0.9,2.1-0.4c4.2,2.8,6.8,7.4,6.8,12.5
		H52C52,11.5,40.5,0,26.2,0S0.5,11.5,0.5,25.7H41.6z"/>
	<circle fill="#FFFFFF" cx="47.5" cy="33" r="5.2"/>
</g>
</svg>
