<?xml version="1.0" encoding="utf-8"?>
<!-- Generator: Adobe Illustrator 18.1.1, SVG Export Plug-In . SVG Version: 6.00 Build 0)  -->
<!DOCTYPE svg PUBLIC "-//W3C//DTD SVG 1.1 Tiny//EN" "http://www.w3.org/Graphics/SVG/1.1/DTD/svg11-tiny.dtd">
<svg version="1.1" baseProfile="tiny" id="Layer_1" xmlns="http://www.w3.org/2000/svg" xmlns:xlink="http://www.w3.org/1999/xlink"
	 x="0px" y="0px" viewBox="0 0 43.6 52" xml:space="preserve">
<g>
	<g>
		<path fill="#676767" d="M38.8,46.8L3.3,2.7c-0.6-0.8-1.5-1-2.1-0.5c-1.9,1.5-2,7.9,3.1,15.4C11,27.5,17.6,29,18.5,29.2l16.2,20.7
			c0.9,1.2,1.9,1.9,2.9,2c0.9,0.1,1.5-0.3,1.6-0.4l0.1-0.1c0.5-0.4,0.7-0.8,0.8-1.4C40.3,48.5,38.9,46.8,38.8,46.8z"/>
	</g>
	<g>
		<path fill="#FFFFFF" d="M43.4,6.7c0.3-0.4,0.2-1-0.3-1.4l0,0l0,0l-0.2-0.1c-0.5-0.4-1.1-0.3-1.5,0.1L30.9,18.8
			c-0.2,0.2-0.5,0.2-0.8,0l-0.3-0.2c-0.3-0.2-0.3-0.5-0.2-0.8L39.8,4C40.1,3.6,40,3,39.5,2.6C39,2.2,38.4,2.3,38,2.7L27.1,15.8
			c-0.2,0.2-0.5,0.2-0.8,0l0,0C26,15.6,26,15.2,26.1,15L36.5,1.7c0.3-0.4,0.2-1.1-0.3-1.4l-0.1,0c-0.5-0.4-1.1-0.3-1.4,0l-12.1,13
			c-4.2,4.4-3.8,8.7-2.2,11L2.1,45.4c0,0-1.4,1.4-1.3,2.9c0,0.7,0.3,1.3,0.9,1.8c0,0,0,0,0.1,0.1c0.2,0.2,1.1,0.8,2.2,0.6
			c0.9-0.1,1.7-0.7,2.4-1.7l16.9-22.7c2.2,0.7,4.6,0.1,7-1.8c1.8-1.4,3-3.1,3-3.2L43.4,6.7z"/>
	</g>
</g>
</svg>
