<?xml version="1.0" encoding="utf-8"?>
<!-- Generator: Adobe Illustrator 18.1.0, SVG Export Plug-In . SVG Version: 6.00 Build 0)  -->
<svg version="1.2" baseProfile="tiny" id="Icons" xmlns="http://www.w3.org/2000/svg" xmlns:xlink="http://www.w3.org/1999/xlink"
	 x="0px" y="0px" viewBox="0 0 72.1 52.8" xml:space="preserve">
<g>
	<path fill="#666666" d="M58.4,28.4c0,0-0.5-1-1.7-1.6c-0.4-0.2-1-0.4-1.6-0.4c-2.3,0-3.4,2-3.4,2s-1.1,2.6-1.5,4.7l0,0l0,0.1
		c-2.6,11.2-12.7,19.6-24.7,19.6C11.4,52.8,0,41.4,0,27.4c0-4.3,1.1-8.4,3-12c0,0.2,0,0.5,0,0.7c0,11.3,7.3,20.8,17.5,24.2
		C12.3,36,6.6,27.5,6.6,17.6c0-4.3,1.1-8.4,3-12c0,0.2,0,0.5,0,0.7c0,3.8,0.8,7.5,2.4,10.7l0,0.1c2.6,4.5,6.9,7.8,12.1,9
		c1.4,0.3,2.8,0.5,4.2,0.5c4.6,0,10.2-3.2,12.1-4.4s5.5-4.3,9.3-5c4.6-0.8,7.1,1.7,7.9,3c0.5,0.8,0.9,1.6,1.1,2.4
		C59.6,25.5,58.4,28.4,58.4,28.4z"/>
	<path fill="#666666" d="M38.8,21.3c-3.5,2.2-8.8,3.9-12.6,3.5c-1.1-2.4-1.8-5.2-1.8-8.1C24.3,8,30.1,0.8,37.5,0
		c-2.6,2.4-4.3,6-4.3,10.2C33.2,14.9,35.5,19.1,38.8,21.3z"/>
	<path fill="#FFFFFF" d="M58.6,49.4c-0.3,0-0.6-0.1-0.8-0.3c-3.3-3.2-4.4-7.4-3.1-11.7c0.7-2.4,2.2-4.3,3.6-6.2
		c2.1-2.8,3.8-5.1,3.3-8.4c-0.1-0.7,0.3-1.3,1-1.4c0.7-0.1,1.3,0.3,1.4,1c0.7,4.3-1.5,7.3-3.7,10.2c-1.3,1.8-2.6,3.5-3.2,5.5
		c-1,3.4-0.2,6.6,2.5,9.3c0.5,0.5,0.5,1.2,0,1.7C59.2,49.3,58.9,49.4,58.6,49.4z"/>
	<path fill="#FFFFFF" d="M61.8,19.8l0-0.8c0-0.2,0-4.2,2.6-6.8c2.6-2.6,6.6-2.6,6.8-2.6l0.8,0l0,0.8c0,0.2,0,4.2-2.6,6.8
		c-2.6,2.6-6.6,2.6-6.8,2.6L61.8,19.8z M70.4,11.3c-1.2,0.2-3.3,0.6-4.8,2.1c-1.5,1.5-1.9,3.6-2.1,4.8c1.2-0.2,3.3-0.6,4.8-2.1
		C69.8,14.6,70.2,12.5,70.4,11.3z"/>
	<path fill="#FFFFFF" d="M59,17.7l-0.5-0.6c-0.1-0.1-1.4-1.9-1.1-3.9c0.3-2,2.1-3.4,2.1-3.4l0.6-0.5l0.5,0.6
		c0.1,0.1,1.4,1.9,1.1,3.9c-0.3,2-2.1,3.4-2.1,3.4L59,17.7z M59.9,11.7c-0.4,0.4-0.7,1-0.8,1.7c-0.1,0.7,0.1,1.4,0.3,1.9
		c0.4-0.4,0.7-1,0.8-1.7C60.3,12.9,60.1,12.2,59.9,11.7z"/>
</g>
</svg>
