<?xml version="1.0" encoding="utf-8"?>
<!-- Generator: Adobe Illustrator 18.1.0, SVG Export Plug-In . SVG Version: 6.00 Build 0)  -->
<svg version="1.2" baseProfile="tiny" id="Icons" xmlns="http://www.w3.org/2000/svg" xmlns:xlink="http://www.w3.org/1999/xlink"
	 x="0px" y="0px" viewBox="0 0 61.3 67.9" xml:space="preserve">
<g>
	<path fill="#666666" d="M36.3,19c2.1,0.1,4.7,0.2,7.2-2.3c0.6-0.6,0.6-1.5,0-2.1c-0.6-0.6-1.5-0.6-2.1,0c-1.5,1.5-3,1.5-5,1.4
		c-2.1-0.1-4.7-0.2-7.2,2.3c-2.4,2.4-2.3,5.1-2.3,7.2c0.1,1.8,0.1,3.3-1.2,4.7L22.2,28l-2.6-1.5L18.1,29L1.5,56.6L0,59.2l2.6,1.5
		l9.4,5.6l2.6,1.5l1.5-2.6l16.5-27.6l1.5-2.6l-2.6-1.5l-3.2-1.9c1.7-2.2,1.6-4.5,1.6-6.4c-0.1-1.9-0.1-3.4,1.4-5
		C32.8,18.8,34.4,18.9,36.3,19z M13.5,63.8l-9.4-5.6l10.1-16.8l9.5,5.3L13.5,63.8z M24.5,45.4l0.7-1.3l-9.5-5.3l4.9-8.2l9.4,5.6
		L24.5,45.4z"/>
	<path fill="#666666" d="M48,35.7l-4.4,2.5c-0.1-0.4,0-0.7,0.2-1.4c0.3-1,0.7-2.5-0.3-4.1c-1-1.7-2.4-2-3.5-2.2
		c-0.9-0.2-1.3-0.3-1.6-0.8c-0.4-0.7-1.3-0.9-2.1-0.5c-0.7,0.4-0.9,1.3-0.5,2.1c1,1.7,2.4,2,3.5,2.2c0.9,0.2,1.3,0.3,1.6,0.8
		c0.3,0.5,0.2,0.9,0,1.8c-0.3,1-0.6,2.2,0.1,3.7L36,42.4l13.2,23.8l12-6.7L48,35.7z M46.8,39.7l3.2,5.7l-6.7,3.8l-3.2-5.8L46.8,39.7
		z M44.8,51.9l6.7-3.8l5.7,10.2l-6.8,3.8L44.8,51.9z"/>
	<path fill="#FFFFFF" d="M41.4,9.1c0.8,0,1.5-0.7,1.5-1.5V1.5c0-0.8-0.7-1.5-1.5-1.5s-1.5,0.7-1.5,1.5v6.1
		C39.9,8.4,40.6,9.1,41.4,9.1z"/>
	<path fill="#FFFFFF" d="M47.1,11.4c0.4,0,0.8-0.1,1.1-0.4l4.3-4.3c0.6-0.6,0.6-1.5,0-2.1c-0.6-0.6-1.5-0.6-2.1,0L46,8.9
		c-0.6,0.6-0.6,1.5,0,2.1C46.3,11.3,46.7,11.4,47.1,11.4z"/>
	<path fill="#FFFFFF" d="M47.9,15.6c0,0.8,0.7,1.5,1.5,1.5h6.1c0.8,0,1.5-0.7,1.5-1.5s-0.7-1.5-1.5-1.5h-6.1
		C48.6,14.1,47.9,14.8,47.9,15.6z"/>
	<path fill="#FFFFFF" d="M50.3,26.7c0.3,0.3,0.7,0.4,1.1,0.4s0.8-0.1,1.1-0.4c0.6-0.6,0.6-1.5,0-2.1l-4.3-4.3
		c-0.6-0.6-1.5-0.6-2.1,0s-0.6,1.5,0,2.1L50.3,26.7z"/>
	<path fill="#FFFFFF" d="M34.6,11c0.3,0.3,0.7,0.4,1.1,0.4s0.8-0.1,1.1-0.4c0.6-0.6,0.6-1.5,0-2.1l-4.3-4.3c-0.6-0.6-1.5-0.6-2.1,0
		c-0.6,0.6-0.6,1.5,0,2.1L34.6,11z"/>
</g>
</svg>
