<?xml version="1.0" encoding="utf-8"?>
<!-- Generator: Adobe Illustrator 18.1.0, SVG Export Plug-In . SVG Version: 6.00 Build 0)  -->
<svg version="1.2" baseProfile="tiny" id="Icons" xmlns="http://www.w3.org/2000/svg" xmlns:xlink="http://www.w3.org/1999/xlink"
	 x="0px" y="0px" viewBox="0 0 41.9 65.7" xml:space="preserve">
<g>
	<rect x="31.1" y="6.3" fill="#FFFFFF" width="4.9" height="25.1"/>
	<path fill="#FFFFFF" d="M10.6,2.8c1.5,0,2.7,1.2,2.7,2.7c0,1.5-1.2,2.7-2.7,2.7C9.1,8.2,7.9,7,7.9,5.5C7.9,4,9.1,2.8,10.6,2.8z"/>
	<path fill="#666666" d="M42,0.3v37.1h-7v14.9h2.5l-1,12.7h-6l-1-12.7H32V37.5h-6.9V0.3H42z M36,31.5V6.3h-4.9v25.1H36z"/>
	<path fill="#666666" d="M13.3,5.5c0-1.5-1.2-2.7-2.7-2.7C9.1,2.8,7.9,4,7.9,5.5c0,1.5,1.2,2.7,2.7,2.7C12.1,8.2,13.3,7,13.3,5.5z
		 M16.1,5.5v42.6c0.6,0.4,1.2,0.8,1.7,1.3c4.3,4,4.6,10.7,0.6,15c-0.5,0.5-1,1-1.6,1.4h-1.9v-6c0-2.3-1.9-4.3-4.3-4.3
		c-2.4,0-4.3,1.9-4.3,4.3v6H4.4c-0.4-0.3-0.7-0.5-1-0.8c-4.3-4-4.6-10.7-0.6-15c0.7-0.7,1.4-1.3,2.2-1.8V5.5C5.1,2.5,7.5,0,10.6,0
		C13.6,0,16.1,2.5,16.1,5.5z"/>
</g>
</svg>
