<?xml version="1.0" encoding="utf-8"?>
<!-- Generator: Adobe Illustrator 18.1.0, SVG Export Plug-In . SVG Version: 6.00 Build 0)  -->
<svg version="1.2" baseProfile="tiny" id="Icons" xmlns="http://www.w3.org/2000/svg" xmlns:xlink="http://www.w3.org/1999/xlink"
	 x="0px" y="0px" viewBox="0 0 52.7 67.9" xml:space="preserve">
<g>
	<path fill="#666666" d="M47.9,45.1c-1.2-1.2-3.1-1.2-4.2,0c-1.2,1.2-1.2,3.1,0,4.2c0.2,0.2,0.4,0.3,0.6,0.5c-0.5,1.7-1.2,3.4-2.1,5
		c-0.9,1.5-2,2.9-3.2,4.2c-3.9,3.9-9,6-14.4,6c-5.5,0-10.6-2.1-14.4-6c-0.6-0.6-1.5-0.6-2.1,0c-0.6,0.6-0.6,1.5,0,2.1
		c4.4,4.4,10.3,6.9,16.6,6.9s12.1-2.4,16.6-6.9c1.4-1.4,2.7-3.1,3.7-4.8c1.1-1.8,1.9-3.8,2.4-5.9c0-0.2,0.1-0.4,0-0.5
		c0.2-0.1,0.4-0.3,0.6-0.5C49.1,48.2,49.1,46.3,47.9,45.1z"/>
	<polygon fill="#FFFFFF" points="21,12.9 23.2,17.7 16.3,24.6 11.5,22.4 	"/>
	<path fill="#FFFFFF" d="M4.5,5.6c-0.4-0.4-0.4-1,0-1.4c1.1-1.1,2.5-1.7,4-1.7s2.9,0.6,4,1.7c0.4,0.4,0.4,1,0,1.4
		c-0.2,0.2-0.4,0.3-0.7,0.3c-0.2,0-0.5-0.1-0.7-0.3c-1.4-1.4-3.8-1.4-5.2,0C5.5,5.9,4.9,5.9,4.5,5.6z"/>
	<path fill="#666666" d="M11.5,22.4l4.8,2.2l6.9-6.9L21,12.9L11.5,22.4z M6.3,23.3L21.9,7.7l5,10.6l-9.9,9.9L6.3,23.3z"/>
	<path fill="#666666" d="M2.4,2.4C2.6,2.2,2.9,2,3.1,1.9c0.2-0.2,0.4-0.3,0.7-0.5C5.1,0.5,6.7,0,8.3,0c2.1,0,4.3,0.8,5.9,2.4
		c0.8,0.8,1.4,1.8,1.8,2.8c0.1,0.2,0.2,0.5,0.3,0.8c0.2,0.8,0.3,1.6,0.3,2.4c0,0.3,0,0.5,0,0.8c0,0.3-0.1,0.5-0.1,0.8
		c-0.1,0.5-0.3,1-0.5,1.5c-0.4,1-1,1.9-1.8,2.8c-1.6,1.6-3.8,2.4-5.9,2.4c-1.6,0-3.2-0.5-4.6-1.4c-0.2-0.2-0.4-0.3-0.7-0.5
		c-0.2-0.2-0.4-0.4-0.6-0.6C2.2,14,2,13.8,1.9,13.6c-0.3-0.4-0.7-0.9-0.9-1.4c-0.4-0.7-0.7-1.5-0.8-2.3C0.1,9.7,0.1,9.4,0,9.1
		c0-0.3,0-0.5,0-0.8C0,6.2,0.8,4.1,2.4,2.4z M4.5,4.1c-0.4,0.4-0.4,1,0,1.4s1,0.4,1.4,0c1.4-1.4,3.8-1.4,5.2,0
		c0.2,0.2,0.5,0.3,0.7,0.3c0.3,0,0.5-0.1,0.7-0.3c0.4-0.4,0.4-1,0-1.4c-1.1-1.1-2.5-1.7-4-1.7S5.6,3.1,4.5,4.1z"/>
	<path fill="#666666" d="M51.8,23.4c-1.2-1.2-3.2-1.2-4.4,0c1.2-1.2,1.2-3.2,0-4.4c-1.2-1.2-3.2-1.2-4.4,0l7-7
		c1.2-1.2,1.2-3.2,0-4.4s-3.2-1.2-4.4,0L26.4,26.7l4.4,4.4l4.4,4.4l4.4,4.4l12.1-12.1C53,26.6,53,24.6,51.8,23.4z"/>
	<path fill="#666666" d="M34.2,39.2L27.4,46c-0.2,0.2-0.5,0.3-0.7,0.3S26.2,46.2,26,46c-0.4-0.4-0.4-1,0-1.4l6.8-6.8L22.2,27.2
		L4.6,44.9l16.3,16.3l17.7-17.7L34.2,39.2z"/>
</g>
</svg>
