<?xml version="1.0" encoding="utf-8"?>
<!-- Generator: Adobe Illustrator 18.1.0, SVG Export Plug-In . SVG Version: 6.00 Build 0)  -->
<svg version="1.2" baseProfile="tiny" id="Icons" xmlns="http://www.w3.org/2000/svg" xmlns:xlink="http://www.w3.org/1999/xlink"
	 x="0px" y="0px" viewBox="0 0 60 44.9" xml:space="preserve">
<g>
	<path fill="#FFFFFF" d="M57.1,33.5v8.4c-5.8-0.2-8.9-1.7-12.2-3.2c-3.7-1.8-7.4-3.5-14.9-3.5c-0.9,0-1.7,0-2.6,0.1
		c-5.8,0.4-9.1,1.9-12.3,3.5c-3.2,1.6-6.3,3-12.2,3.2v-8.4c6.5-0.2,10-1.9,13.5-3.5c3.5-1.7,6.8-3.3,13.6-3.3
		c6.8,0,10.1,1.6,13.6,3.3C47.1,31.6,50.6,33.2,57.1,33.5z"/>
	<path fill="#FFFFFF" d="M57.1,22.1v8.4c-5.8-0.2-8.9-1.7-12.2-3.2c-3.6-1.8-7.4-3.6-14.9-3.6c-7.5,0-11.2,1.8-14.9,3.6
		c-3.2,1.6-6.3,3-12.2,3.2v-4c6.5-0.2,10-1.9,13.4-3.5c3.1-1.5,6-2.9,11.2-3.2l1.4-0.1v-1v-3.5c0.3,0,0.7,0,1,0
		c6.8,0,10.1,1.6,13.6,3.3C47.1,20.2,50.6,21.9,57.1,22.1z"/>
	<path fill="#FFFFFF" d="M57.1,9.7v9.4c-5.8-0.2-8.9-1.7-12.2-3.2c-3.6-1.7-7.4-3.6-14.9-3.6c-0.3,0-0.7,0-1,0V3c0.3,0,0.7,0,1,0
		c6.8,0,10.1,1.6,13.6,3.3C47.1,7.8,50.6,9.5,57.1,9.7z"/>
	<path fill="#666666" d="M29,15.3v3.5v1l-1.4,0.1c-5.2,0.3-8.2,1.7-11.2,3.2c-3.4,1.6-6.9,3.3-13.4,3.5v4c5.8-0.2,8.9-1.7,12.2-3.2
		c3.7-1.8,7.4-3.6,14.9-3.6c7.5,0,11.2,1.8,14.9,3.6c3.2,1.6,6.4,3,12.2,3.2v-8.4c-6.5-0.2-10-1.9-13.4-3.5
		c-3.5-1.7-6.8-3.3-13.6-3.3C29.7,15.3,29.3,15.3,29,15.3z M30,2.9c-0.3,0-0.7,0-1,0v9.4c0.3,0,0.7,0,1,0c7.5,0,11.2,1.8,14.9,3.6
		c3.2,1.6,6.3,3,12.2,3.2V9.7c-6.5-0.2-10-1.9-13.4-3.5C40.1,4.5,36.8,2.9,30,2.9z M43.6,29.9c-3.5-1.7-6.8-3.3-13.6-3.3
		c-6.8,0-10.1,1.6-13.6,3.3c-3.4,1.6-6.9,3.3-13.5,3.5v8.4c5.8-0.2,8.9-1.7,12.2-3.2c3.2-1.5,6.5-3.1,12.3-3.5
		c0.9-0.1,1.7-0.1,2.6-0.1c7.5,0,11.2,1.8,14.9,3.5c3.2,1.6,6.3,3,12.2,3.2v-8.4C50.6,33.2,47.1,31.6,43.6,29.9z M43.6,41.3
		C40.1,39.6,36.8,38,30,38c-0.8,0-1.6,0-2.4,0.1c-5.2,0.3-8.2,1.7-11.2,3.2c-3.6,1.8-7.4,3.5-14.9,3.5H0V26.6v-3.9V6.8h1.5
		c6.8,0,10.1-1.6,13.6-3.3c2.9-1.4,6-2.8,11-3.4v0l1.4-0.1L29,0V0c0.3,0,0.7,0,1,0c7.5,0,11.2,1.8,14.9,3.5
		c3.5,1.7,6.8,3.3,13.6,3.3H60v38h-1.5C51.1,44.8,47.3,43,43.6,41.3z"/>
</g>
</svg>
