<?xml version="1.0" encoding="utf-8"?>
<!-- Generator: Adobe Illustrator 18.1.0, SVG Export Plug-In . SVG Version: 6.00 Build 0)  -->
<svg version="1.2" baseProfile="tiny" id="Icons" xmlns="http://www.w3.org/2000/svg" xmlns:xlink="http://www.w3.org/1999/xlink"
	 x="0px" y="0px" viewBox="0 0 37.9 70.8" xml:space="preserve">
<g>
	<path fill="#666666" d="M36.1,55.5h-5.4V38.3c0-0.3-0.1-0.5-0.2-0.7c4.2-0.6,7.4-4.2,7.4-8.6l0,0l-1-29H21.6l-1,29
		c0,4.3,3.2,7.9,7.4,8.6c-0.1,0.2-0.2,0.5-0.2,0.7v17.3h-5.4c-0.8,0-1.5,0.7-1.5,1.5s0.7,1.5,1.5,1.5h13.7c0.8,0,1.5-0.7,1.5-1.5
		S36.9,55.5,36.1,55.5z M34,3l0.3,8.5H24.2L24.5,3H34z M23.6,29l0.5-14.6h10.3L34.9,29c0,3.1-2.6,5.6-5.7,5.6
		C26.1,34.7,23.6,32.1,23.6,29z"/>
	<path fill="#666666" d="M17.3,41.3L17.3,41.3l-0.5-14.6l0-0.1l0-0.1l-0.5-14.2H1l-1,29c0,4.3,3.2,7.9,7.4,8.6
		c-0.1,0.2-0.2,0.5-0.2,0.7v17.3H1.8c-0.8,0-1.5,0.7-1.5,1.5s0.7,1.5,1.5,1.5h13.7c0.8,0,1.5-0.7,1.5-1.5s-0.7-1.5-1.5-1.5h-5.4
		V50.5c0-0.3-0.1-0.5-0.2-0.7C14.1,49.2,17.3,45.6,17.3,41.3z M13.4,15.3l0.3,9.8H3.6l0.3-9.8H13.4z M8.7,46.9
		c-3.1,0-5.6-2.5-5.7-5.6l0.5-13.2h10.4l0.5,13.2C14.3,44.4,11.8,46.9,8.7,46.9z"/>
	<circle fill="#FFFFFF" cx="11.1" cy="34.3" r="1.5"/>
	<circle fill="#FFFFFF" cx="7" cy="38.2" r="1.5"/>
	<circle fill="#FFFFFF" cx="10.1" cy="42.2" r="1.5"/>
	<circle fill="#FFFFFF" cx="31.3" cy="20.9" r="1.5"/>
	<circle fill="#FFFFFF" cx="27.2" cy="24.9" r="1.5"/>
	<circle fill="#FFFFFF" cx="30.3" cy="28.9" r="1.5"/>
</g>
</svg>
