<?xml version="1.0" encoding="utf-8"?>
<!-- Generator: Adobe Illustrator 18.1.0, SVG Export Plug-In . SVG Version: 6.00 Build 0)  -->
<svg version="1.2" baseProfile="tiny" id="Icons" xmlns="http://www.w3.org/2000/svg" xmlns:xlink="http://www.w3.org/1999/xlink"
	 x="0px" y="0px" viewBox="0 0 49.5 66.6" xml:space="preserve">
<g>
	<path fill="#666666" d="M38.8,32.2c-2.5,0-4.5,2-4.5,4.5l0,0v14.2H15.6V36.7c0-2.5-2-4.5-4.5-4.5s-4.5,2-4.5,4.5l0,0v13.2h0v3.6
		c0,10.2,8.2,13.1,18.4,13.1c10.2,0,18.4-3,18.4-13.1v-3.6v0V36.7C43.3,34.2,41.3,32.2,38.8,32.2z"/>
	<path fill="#FFFFFF" d="M15.2,4.6v10c0,0.5-0.5,1-1,1s-1-0.5-1-1v-10c0-0.5,0.5-1,1-1S15.2,4.1,15.2,4.6z"/>
	<path fill="#666666" d="M10.5,24.8h28.9v-4.6H10.5V24.8z M48,24.8c0.8,0,1.5,0.7,1.5,1.5c0,0.8-0.7,1.5-1.5,1.5h-5.6H7.5h-6
		c-0.8,0-1.5-0.7-1.5-1.5c0-0.8,0.7-1.5,1.5-1.5h6V0h34.9v24.8H48z M15.2,14.6v-10c0-0.5-0.5-1-1-1s-1,0.5-1,1v10c0,0.5,0.5,1,1,1
		S15.2,15.2,15.2,14.6z"/>
	<rect x="10.5" y="20.2" fill="#FFFFFF" width="28.9" height="4.6"/>
</g>
</svg>
