<?xml version="1.0" encoding="utf-8"?>
<!-- Generator: Adobe Illustrator 18.1.0, SVG Export Plug-In . SVG Version: 6.00 Build 0)  -->
<svg version="1.2" baseProfile="tiny" id="Icons" xmlns="http://www.w3.org/2000/svg" xmlns:xlink="http://www.w3.org/1999/xlink"
	 x="0px" y="0px" viewBox="0 0 68.5 45.5" xml:space="preserve">
<g>
	<path fill="#666666" d="M42.7,12C39,9.7,34.6,8.4,29.9,8.4C16.5,8.4,5.6,19.3,5.6,32.6c0,1.3,0.1,2.6,0.3,3.8h47.9
		c0.2-1.3,0.3-2.5,0.3-3.8c0-1.3-0.1-2.5-0.3-3.7c0.1-0.1,0.3-0.3,0.4-0.4c4-4,4-10.5,0-14.5C51.2,10.9,46.5,10.2,42.7,12z
		 M20.3,17.8c-4.1,2.7-7,7-7.8,11.8c-0.1,0.5-0.5,0.8-1,0.8l-0.2,0c-0.5-0.1-0.9-0.6-0.8-1.2c0.9-5.4,4.1-10.1,8.7-13.1
		c0.5-0.3,1.1-0.2,1.4,0.3S20.8,17.5,20.3,17.8z M40.9,18.3c0.2-0.5,0.8-0.7,1.3-0.5c0.5,0.2,0.7,0.8,0.5,1.3
		c-0.9,1.9-0.5,4.1,0.9,5.6c1.6,1.6,4,1.9,5.9,0.8c0.5-0.3,1.1-0.1,1.4,0.4c0.3,0.5,0.1,1.1-0.4,1.4c-1.1,0.6-2.3,0.9-3.4,0.9
		c-1.8,0-3.5-0.7-4.9-2C40.1,24.1,39.6,20.9,40.9,18.3z"/>
	<path fill="#FFFFFF" d="M67.2,6.4c-1.2-1.2-3-1.5-4.4-0.8c0.7-1.5,0.4-3.2-0.8-4.4c-1.5-1.5-4-1.5-5.6,0c-1.5,1.5-1.4,4.2,0,5.6
		l-3.8,3.8c1.1,0.5,2.2,1.2,3.1,2.1c1.1,1.1,1.9,2.4,2.4,3.7l3.9-3.9c1.4,1.4,3.8,1.3,5.4-0.2C69,10.6,68.7,7.9,67.2,6.4z"/>
	<path fill="#FFFFFF" d="M57.5,39.5h-56C0.7,39.5,0,38.8,0,38s0.7-1.5,1.5-1.5h56c0.8,0,1.5,0.7,1.5,1.5S58.3,39.5,57.5,39.5z"/>
	<path fill="#FFFFFF" d="M54.5,45.5h-48C5.7,45.5,5,44.8,5,44s0.7-1.5,1.5-1.5h48c0.8,0,1.5,0.7,1.5,1.5S55.3,45.5,54.5,45.5z"/>
</g>
</svg>
