<svg viewBox="0 0 100 100" xmlns="http://www.w3.org/2000/svg"><symbol viewBox="-8.369 2.643 52.533 63.12" id="icon-birthdayhat"><title>birthdayhat</title>  <g id="birthdayhat-artwork"> <polygon fill="#983A92" points="-8.368,48.461 30.383,15.944 39.168,65.762 	"/> <polygon opacity="0.5" fill="#7E378F" enable-background="new    " points="30.383,15.944 39.168,65.762 15.399,57.111 	"/> <rect x="-8.497" y="49.192" transform="matrix(-0.9397 -0.342 0.342 -0.9397 14.3579 109.082)" fill="#662D91" width="50.587" height="8.167"/> <path opacity="0.5" fill="#EB8F8E" enable-background="new    " d="M7.026,38.122c-0.978,2.688-3.952,4.074-6.639,3.096
		c-0.028-0.01-0.056-0.021-0.081-0.04L7.24,35.37C7.419,36.254,7.361,37.201,7.026,38.122z"/> <path opacity="0.5" fill="#EB8F8E" enable-background="new    " d="M30.792,54.019l-9.745-3.547
		c0.978-2.688,3.952-4.074,6.639-3.096C30.384,48.358,31.77,51.332,30.792,54.019z"/> <path opacity="0.5" fill="#EB8F8E" enable-background="new    " d="M34.778,40.845c-0.537-0.015-1.085-0.118-1.621-0.313
		c-2.688-0.978-4.074-3.952-3.096-6.639c0.527-1.447,1.628-2.515,2.955-3.032L34.778,40.845z"/> <path opacity="0.5" fill="#EB8F8E" enable-background="new    " d="M32.097,25.698c-2.553-1.057-3.834-3.939-2.88-6.561
		c0.294-0.808,0.769-1.497,1.368-2.035L32.097,25.698z"/> <circle opacity="0.5" fill="#EB8F8E" enable-background="new    " cx="19.343" cy="37.056" r="5.185"/> <polygon fill="#9FD0CB" points="30.489,15.652 33.534,7.286 44.164,15.814 	"/> <rect x="31.894" y="3.703" transform="matrix(-0.9397 -0.342 0.342 -0.9397 59.2699 31.2941)" fill="#29ABE2" width="1" height="13.437"/> <circle fill="#EB8F8E" cx="34.617" cy="4.311" r="1.667"/> </g>   <g id="birthdayhat-comments" display="none"> <rect x="-27.373" y="-55.144" display="inline" opacity="0.5" fill="#FF00FF" enable-background="new    " width="86" height="60"/> </g> </symbol><symbol viewBox="0 0 73.4 54.9" id="icon-blackfriday"><title>blackfriday</title> <g> <path fill="#666666" d="M31.6,54.9c-0.5,0-1.1-0.1-1.7-0.5c-0.9-0.5-1.5-1.3-1.6-2.2c-0.3-2.4,2.1-5.4,4.2-7.5l1.4,1.4
		c-2.4,2.4-3.8,4.6-3.6,5.8c0,0.2,0.1,0.5,0.6,0.8c0.8,0.5,1.3,0.2,2.5-1c0.8-0.8,1.7-1.8,3.1-1.8c1.3,0,2.3,1,3.1,1.8
		c1.2,1.2,1.6,1.5,2.5,1c0.5-0.3,0.6-0.5,0.6-0.8c0.2-1.2-1.2-3.4-3.6-5.8l1.4-1.4c2.1,2.1,4.5,5.1,4.2,7.5
		c-0.1,0.9-0.7,1.7-1.6,2.2C40.6,55.7,39,54.1,38,53c-0.6-0.6-1.1-1.2-1.6-1.2s-1,0.6-1.6,1.2C34,53.8,33,54.9,31.6,54.9z"/> <path fill="#666666" d="M41.9,0.2C40-0.2,38.3,0,36.5,0.5c-3.7,0.9-5.1,4.6-4.7,8.2c0.4,3.1,2.4,6,5,7.5c1.6,0.9,3.5,1.2,5.2,1.3
		c-1.9-1.5-3.2-6.4-1.9-8.6c0.4,1.3,1.1,2.9,2.3,3.7c1.4,0.9,2.8,1.4,4.5,1.6c-1.6-1.4-3.2-3.5-2.9-5.7c0.1-1,0.5-1.7,1.2-3.2
		C46.5,2.3,43.9,0.5,41.9,0.2z"/> <path fill="#FFFFFF" d="M55.2,31.6h-0.4v-3.1h2.7v-2h-2.7v-1.7h-2v1.7h-1.5v-1.7h-2v1.7H49c-1.9,0-3.5,1.6-3.5,3.5s1.6,3.5,3.5,3.5
		h0.3v2.8h-2.5v2h2.5v2.2h2v-2.2h1.5v2.2h2v-2.2h0.4c1.9,0,3.4-1.5,3.4-3.4C58.6,33.2,57.1,31.6,55.2,31.6z M52.8,28.6v3.1h-1.5
		v-3.1H52.8z M49,31.6c-0.8,0-1.5-0.7-1.5-1.5s0.7-1.5,1.5-1.5h0.3v3.1H49z M51.3,36.4v-2.8h1.5v2.8H51.3z M55.2,36.4h-0.4v-2.8h0.4
		c0.8,0,1.4,0.6,1.4,1.4S56,36.4,55.2,36.4z"/> <path fill="#FFFFFF" d="M24.4,31.6H24v-3.1h2.7v-2H24v-1.7h-2v1.7h-1.5v-1.7h-2v1.7h-0.3c-1.9,0-3.5,1.6-3.5,3.5s1.6,3.5,3.5,3.5
		h0.3v2.8h-2.5v2h2.5v2.2h2v-2.2H22v2.2h2v-2.2h0.4c1.9,0,3.4-1.5,3.4-3.4C27.8,33.2,26.3,31.6,24.4,31.6z M22,28.6v3.1h-1.5v-3.1
		H22z M18.2,31.6c-0.8,0-1.5-0.7-1.5-1.5s0.7-1.5,1.5-1.5h0.3v3.1H18.2z M20.5,36.4v-2.8H22v2.8H20.5z M24.4,36.4H24v-2.8h0.4
		c0.8,0,1.4,0.6,1.4,1.4S25.2,36.4,24.4,36.4z"/> <path fill="#666666" d="M73.3,25.3c-0.2-1.1-0.6-1.9-1-2.5c-2.1-2.7-4.9-3.1-7.5-1.1l-3.2,2.4c-2.4-2.5-5.7-4.1-9.5-4.1
		c-5.8,0-10.6,3.8-12.3,9c-0.9-0.6-2-1-3.1-1c-1.2,0-2.2,0.4-3.1,1c-1.7-5.2-6.6-8.9-12.3-8.9c-3.7,0-7.1,1.6-9.5,4.2l-3.2-2.4
		c-2.6-2-5.4-1.6-7.5,1.1c-0.4,0.6-0.8,1.4-1,2.5c-0.2,0.8,0.3,1.6,1.1,1.8C2,27.2,2.8,26.7,3,25.9c0.2-0.9,0.4-1.2,0.4-1.3
		c1.2-1.6,2.2-1.4,3.3-0.5l3.3,2.4c-1.1,1.9-1.7,4.1-1.7,6.4c0,7.2,5.8,13,13,13c7,0,12.8-5.6,13-12.6h0c0-1.3,1.1-2.4,2.4-2.4
		c1.3,0,2.4,1.1,2.4,2.4h0.1c0.2,7,5.9,12.6,13,12.6c7.2,0,13-5.8,13-13c0-2.3-0.6-4.5-1.7-6.4l3.3-2.4c1.1-0.8,2-1.1,3.3,0.5
		c0,0,0.2,0.3,0.4,1.3c0.2,0.8,1,1.3,1.8,1.1C73,26.9,73.5,26.1,73.3,25.3z M21.2,42.9c-5.5,0-10-4.5-10-10s4.5-10,10-10
		c5.5,0,10,4.5,10,10S26.8,42.9,21.2,42.9z M52.2,42.9c-5.5,0-10-4.5-10-10s4.5-10,10-10s10,4.5,10,10S57.7,42.9,52.2,42.9z"/> </g> </symbol><symbol viewBox="0 0 52.8 66.1" id="icon-christmas"><title>christmas</title> <g> <path fill="#FFFFFF" d="M19.9,66.1C6.7,66.1,0,61.1,0,51.4l0-16.8c0-3.3,2.7-6,6-6s6,2.7,6,6v12.7h15.7V34.6c0-1.6,0.6-3.1,1.8-4.3
		c1.1-1.1,2.6-1.8,4.3-1.8c3.3,0,6,2.7,6,6v16.8C39.8,61.1,33.1,66.1,19.9,66.1z M3,46.4l0,5.1c0,2.9,0,11.6,16.9,11.6
		c16.9,0,16.9-8.8,16.9-11.6V34.6c0-1.7-1.4-3-3-3s-3,1.4-3,3l0,15.7H9V34.6c0-1.7-1.4-3-3-3s-3,1.4-3,3V46.4z"/> <path fill="#666666" d="M41.6,25.7c0-4-2-7.7-5.4-9.9c-0.7-0.5-0.9-1.4-0.4-2.1c0.5-0.7,1.4-0.9,2.1-0.4c4.2,2.8,6.8,7.4,6.8,12.5
		H52C52,11.5,40.5,0,26.2,0S0.5,11.5,0.5,25.7H41.6z"/> <circle fill="#FFFFFF" cx="47.5" cy="33" r="5.2"/> </g> </symbol><symbol viewBox="0 0 61 63.7" id="icon-christmaseve"><title>christmaseve</title> <g> <path fill="#666666" d="M46.5,48.1l-1.1-0.7c0-1.1-0.5-2.1-1.5-2.7c-1-0.6-2.2-0.5-3.1,0l-2.3-1.3l1.2-2.2c0.4-0.7,0.2-1.6-0.5-2
		C39,39.1,38.7,39,38.4,39v-4.9l0.1,0c0.3,0,0.5-0.1,0.7-0.2c0.7-0.4,1-1.3,0.5-2l-1.2-2.1l2.3-1.3c0.9,0.5,2.1,0.6,3.1,0
		c1-0.6,1.5-1.6,1.5-2.7l1.1-0.7c0.7-0.4,1-1.3,0.5-2c-0.4-0.7-1.3-1-2-0.5l-1.1,0.7c-0.9-0.5-2.1-0.6-3.1,0s-1.5,1.6-1.5,2.7
		L37,27.1L35.8,25c-0.4-0.7-1.3-1-2-0.5c-0.3,0.1-0.4,0.4-0.6,0.6l-4.3-2.5c0.1-0.2,0.2-0.5,0.2-0.8l0,0l0,0c0-0.8-0.7-1.5-1.5-1.5
		h-2.5v-2.6c0.9-0.5,1.6-1.5,1.6-2.7l0,0l0,0c0-1.1-0.6-2.1-1.6-2.7V11c0-0.8-0.7-1.5-1.5-1.5s-1.5,0.7-1.5,1.5v1.3
		c-0.9,0.5-1.6,1.5-1.6,2.7l0,0l0,0c0,1.1,0.6,2.1,1.6,2.7v2.6h-2.5c-0.8,0-1.5,0.7-1.5,1.5l0,0l0,0c0,0.3,0.1,0.6,0.2,0.8L14.1,25
		c-0.1-0.2-0.3-0.4-0.6-0.6c-0.7-0.4-1.6-0.2-2,0.5l-1.2,2.2L8,25.8c0-1.1-0.5-2.1-1.5-2.7c-1-0.6-2.2-0.5-3.1,0l-1.2-0.7
		c-0.7-0.4-1.6-0.2-2,0.5c-0.4,0.7-0.2,1.6,0.5,2l1.2,0.7c0,1.1,0.5,2.1,1.5,2.7s2.2,0.5,3.1,0l2.3,1.3l-1.2,2.1
		c-0.4,0.7-0.2,1.6,0.5,2c0.2,0.1,0.5,0.2,0.7,0.2l0,0V39c-0.3,0-0.5,0.1-0.8,0.2c-0.7,0.4-1,1.3-0.5,2l1.2,2.1l-2.3,1.3
		c-0.9-0.5-2.1-0.6-3.1,0c-1,0.6-1.5,1.6-1.5,2.7l-1.2,0.7c-0.7,0.4-1,1.3-0.5,2c0.3,0.5,0.8,0.8,1.3,0.8c0.3,0,0.5-0.1,0.7-0.2
		L3.4,50c0.9,0.5,2.1,0.6,3.1,0c1-0.6,1.5-1.6,1.5-2.7l2.3-1.3l1.2,2.1c0.3,0.5,0.8,0.8,1.3,0.8c0.3,0,0.5-0.1,0.7-0.2
		c0.3-0.1,0.4-0.4,0.6-0.6l4.3,2.5c-0.1,0.2-0.2,0.5-0.2,0.8l0,0l0,0c0,0.8,0.7,1.5,1.5,1.5h2.5v2.6c-0.9,0.5-1.6,1.5-1.6,2.7l0,0
		l0,0c0,1.1,0.6,2.1,1.6,2.7v1.3c0,0.8,0.7,1.5,1.5,1.5s1.5-0.7,1.5-1.5v-1.3c0.9-0.5,1.6-1.5,1.6-2.7l0,0l0,0
		c0-1.1-0.6-2.1-1.6-2.7v-2.6h2.5c0.8,0,1.5-0.7,1.5-1.5l0,0l0,0c0-0.3-0.1-0.6-0.2-0.8l4.3-2.5c0.1,0.2,0.3,0.5,0.6,0.6
		c0.2,0.1,0.5,0.2,0.7,0.2c0.5,0,1-0.3,1.3-0.8L37,46l2.3,1.3c0,1.1,0.5,2.1,1.5,2.7c1,0.6,2.2,0.5,3.1,0l1.2,0.7
		c0.2,0.1,0.5,0.2,0.7,0.2c0.5,0,1-0.3,1.3-0.8C47.5,49.4,47.3,48.5,46.5,48.1z M26.1,49.9h-1v-1.7l7.8-4.5l1.5,0.8L34,45.4
		L26.1,49.9z M13.4,45.4l-0.5-0.9l1.5-0.8l7.8,4.5v1.7h-1L13.4,45.4z M21.2,23.3h1v1.7l-7.8,4.5l-1.5-0.8l0.5-0.9L21.2,23.3z
		 M34,27.8l0.5,0.8L33,29.5l-7.8-4.5v-1.7h1L34,27.8z M11.4,41.9l-0.5-0.9v-9l0.5-0.9l1.5,0.8v9L11.4,41.9z M15.8,33.8l2.8,1.6v2.3
		l-2.8,1.6V33.8z M26.3,33.3l-1.1-0.7v-4.3l4.8,2.8L26.3,33.3z M22.2,32.7L21,33.3l-3.7-2.1l4.8-2.8V32.7z M19.3,40.8l2.9,1.7v2.3
		L17.3,42L19.3,40.8z M25.2,42.5l2.9-1.7l2,1.1l-4.8,2.8V42.5z M28.7,37.7v-2.3l2.8-1.6v5.6L28.7,37.7z M34.5,41.1v-9l1.5-0.8
		l0.5,0.8v9.1l-0.5,0.8L34.5,41.1z"/> <path fill="#FFFFFF" d="M60.4,14l-1.4-0.8V7.4l1.4-0.8c0.5-0.3,0.7-1,0.4-1.5c-0.3-0.5-1-0.7-1.5-0.4L58,5.6l-5-2.9V1.1
		C53,0.5,52.5,0,51.9,0s-1.1,0.5-1.1,1.1v1.6l-5,2.9l-1.4-0.8c-0.5-0.3-1.2-0.1-1.5,0.4s-0.1,1.2,0.4,1.5l1.4,0.8v5.8L43.3,14
		c-0.5,0.3-0.7,1-0.4,1.5c0.2,0.3,0.6,0.5,0.9,0.5c0.2,0,0.4,0,0.5-0.1l1.4-0.8l5,2.9v1.6c0,0.6,0.5,1.1,1.1,1.1s1.1-0.5,1.1-1.1V18
		l5-2.9l1.4,0.8c0.2,0.1,0.4,0.1,0.5,0.1c0.4,0,0.7-0.2,0.9-0.5C61.1,15,61,14.3,60.4,14z M57.6,12.4l-1.9-1.1V9.4l1.9-1.1V12.4z
		 M56.5,6.4l-1.9,1.1l-1.7-1V4.3L56.5,6.4z M50.8,4.3v2.2l-1.7,1l-1.9-1.1L50.8,4.3z M46.1,8.3l1.9,1.1v1.9l-1.9,1.1V8.3z
		 M47.2,14.3l1.9-1.1l1.7,1v2.2L47.2,14.3z M53,16.4v-2.2l1.7-1l1.9,1.1L53,16.4z"/> </g> </symbol><symbol viewBox="0 0 72.1 52.8" id="icon-goodfriday"><title>goodfriday</title> <g> <path fill="#666666" d="M58.4,28.4c0,0-0.5-1-1.7-1.6c-0.4-0.2-1-0.4-1.6-0.4c-2.3,0-3.4,2-3.4,2s-1.1,2.6-1.5,4.7l0,0l0,0.1
		c-2.6,11.2-12.7,19.6-24.7,19.6C11.4,52.8,0,41.4,0,27.4c0-4.3,1.1-8.4,3-12c0,0.2,0,0.5,0,0.7c0,11.3,7.3,20.8,17.5,24.2
		C12.3,36,6.6,27.5,6.6,17.6c0-4.3,1.1-8.4,3-12c0,0.2,0,0.5,0,0.7c0,3.8,0.8,7.5,2.4,10.7l0,0.1c2.6,4.5,6.9,7.8,12.1,9
		c1.4,0.3,2.8,0.5,4.2,0.5c4.6,0,10.2-3.2,12.1-4.4s5.5-4.3,9.3-5c4.6-0.8,7.1,1.7,7.9,3c0.5,0.8,0.9,1.6,1.1,2.4
		C59.6,25.5,58.4,28.4,58.4,28.4z"/> <path fill="#666666" d="M38.8,21.3c-3.5,2.2-8.8,3.9-12.6,3.5c-1.1-2.4-1.8-5.2-1.8-8.1C24.3,8,30.1,0.8,37.5,0
		c-2.6,2.4-4.3,6-4.3,10.2C33.2,14.9,35.5,19.1,38.8,21.3z"/> <path fill="#FFFFFF" d="M58.6,49.4c-0.3,0-0.6-0.1-0.8-0.3c-3.3-3.2-4.4-7.4-3.1-11.7c0.7-2.4,2.2-4.3,3.6-6.2
		c2.1-2.8,3.8-5.1,3.3-8.4c-0.1-0.7,0.3-1.3,1-1.4c0.7-0.1,1.3,0.3,1.4,1c0.7,4.3-1.5,7.3-3.7,10.2c-1.3,1.8-2.6,3.5-3.2,5.5
		c-1,3.4-0.2,6.6,2.5,9.3c0.5,0.5,0.5,1.2,0,1.7C59.2,49.3,58.9,49.4,58.6,49.4z"/> <path fill="#FFFFFF" d="M61.8,19.8l0-0.8c0-0.2,0-4.2,2.6-6.8c2.6-2.6,6.6-2.6,6.8-2.6l0.8,0l0,0.8c0,0.2,0,4.2-2.6,6.8
		c-2.6,2.6-6.6,2.6-6.8,2.6L61.8,19.8z M70.4,11.3c-1.2,0.2-3.3,0.6-4.8,2.1c-1.5,1.5-1.9,3.6-2.1,4.8c1.2-0.2,3.3-0.6,4.8-2.1
		C69.8,14.6,70.2,12.5,70.4,11.3z"/> <path fill="#FFFFFF" d="M59,17.7l-0.5-0.6c-0.1-0.1-1.4-1.9-1.1-3.9c0.3-2,2.1-3.4,2.1-3.4l0.6-0.5l0.5,0.6
		c0.1,0.1,1.4,1.9,1.1,3.9c-0.3,2-2.1,3.4-2.1,3.4L59,17.7z M59.9,11.7c-0.4,0.4-0.7,1-0.8,1.7c-0.1,0.7,0.1,1.4,0.3,1.9
		c0.4-0.4,0.7-1,0.8-1.7C60.3,12.9,60.1,12.2,59.9,11.7z"/> </g> </symbol><symbol viewBox="0 0 61.3 67.9" id="icon-independence"><title>independence</title> <g> <path fill="#666666" d="M36.3,19c2.1,0.1,4.7,0.2,7.2-2.3c0.6-0.6,0.6-1.5,0-2.1c-0.6-0.6-1.5-0.6-2.1,0c-1.5,1.5-3,1.5-5,1.4
		c-2.1-0.1-4.7-0.2-7.2,2.3c-2.4,2.4-2.3,5.1-2.3,7.2c0.1,1.8,0.1,3.3-1.2,4.7L22.2,28l-2.6-1.5L18.1,29L1.5,56.6L0,59.2l2.6,1.5
		l9.4,5.6l2.6,1.5l1.5-2.6l16.5-27.6l1.5-2.6l-2.6-1.5l-3.2-1.9c1.7-2.2,1.6-4.5,1.6-6.4c-0.1-1.9-0.1-3.4,1.4-5
		C32.8,18.8,34.4,18.9,36.3,19z M13.5,63.8l-9.4-5.6l10.1-16.8l9.5,5.3L13.5,63.8z M24.5,45.4l0.7-1.3l-9.5-5.3l4.9-8.2l9.4,5.6
		L24.5,45.4z"/> <path fill="#666666" d="M48,35.7l-4.4,2.5c-0.1-0.4,0-0.7,0.2-1.4c0.3-1,0.7-2.5-0.3-4.1c-1-1.7-2.4-2-3.5-2.2
		c-0.9-0.2-1.3-0.3-1.6-0.8c-0.4-0.7-1.3-0.9-2.1-0.5c-0.7,0.4-0.9,1.3-0.5,2.1c1,1.7,2.4,2,3.5,2.2c0.9,0.2,1.3,0.3,1.6,0.8
		c0.3,0.5,0.2,0.9,0,1.8c-0.3,1-0.6,2.2,0.1,3.7L36,42.4l13.2,23.8l12-6.7L48,35.7z M46.8,39.7l3.2,5.7l-6.7,3.8l-3.2-5.8L46.8,39.7
		z M44.8,51.9l6.7-3.8l5.7,10.2l-6.8,3.8L44.8,51.9z"/> <path fill="#FFFFFF" d="M41.4,9.1c0.8,0,1.5-0.7,1.5-1.5V1.5c0-0.8-0.7-1.5-1.5-1.5s-1.5,0.7-1.5,1.5v6.1
		C39.9,8.4,40.6,9.1,41.4,9.1z"/> <path fill="#FFFFFF" d="M47.1,11.4c0.4,0,0.8-0.1,1.1-0.4l4.3-4.3c0.6-0.6,0.6-1.5,0-2.1c-0.6-0.6-1.5-0.6-2.1,0L46,8.9
		c-0.6,0.6-0.6,1.5,0,2.1C46.3,11.3,46.7,11.4,47.1,11.4z"/> <path fill="#FFFFFF" d="M47.9,15.6c0,0.8,0.7,1.5,1.5,1.5h6.1c0.8,0,1.5-0.7,1.5-1.5s-0.7-1.5-1.5-1.5h-6.1
		C48.6,14.1,47.9,14.8,47.9,15.6z"/> <path fill="#FFFFFF" d="M50.3,26.7c0.3,0.3,0.7,0.4,1.1,0.4s0.8-0.1,1.1-0.4c0.6-0.6,0.6-1.5,0-2.1l-4.3-4.3
		c-0.6-0.6-1.5-0.6-2.1,0s-0.6,1.5,0,2.1L50.3,26.7z"/> <path fill="#FFFFFF" d="M34.6,11c0.3,0.3,0.7,0.4,1.1,0.4s0.8-0.1,1.1-0.4c0.6-0.6,0.6-1.5,0-2.1l-4.3-4.3c-0.6-0.6-1.5-0.6-2.1,0
		c-0.6,0.6-0.6,1.5,0,2.1L34.6,11z"/> </g> </symbol><symbol viewBox="0 0 41.9 65.7" id="icon-labor"><title>labor</title> <g> <rect x="31.1" y="6.3" fill="#FFFFFF" width="4.9" height="25.1"/> <path fill="#FFFFFF" d="M10.6,2.8c1.5,0,2.7,1.2,2.7,2.7c0,1.5-1.2,2.7-2.7,2.7C9.1,8.2,7.9,7,7.9,5.5C7.9,4,9.1,2.8,10.6,2.8z"/> <path fill="#666666" d="M42,0.3v37.1h-7v14.9h2.5l-1,12.7h-6l-1-12.7H32V37.5h-6.9V0.3H42z M36,31.5V6.3h-4.9v25.1H36z"/> <path fill="#666666" d="M13.3,5.5c0-1.5-1.2-2.7-2.7-2.7C9.1,2.8,7.9,4,7.9,5.5c0,1.5,1.2,2.7,2.7,2.7C12.1,8.2,13.3,7,13.3,5.5z
		 M16.1,5.5v42.6c0.6,0.4,1.2,0.8,1.7,1.3c4.3,4,4.6,10.7,0.6,15c-0.5,0.5-1,1-1.6,1.4h-1.9v-6c0-2.3-1.9-4.3-4.3-4.3
		c-2.4,0-4.3,1.9-4.3,4.3v6H4.4c-0.4-0.3-0.7-0.5-1-0.8c-4.3-4-4.6-10.7-0.6-15c0.7-0.7,1.4-1.3,2.2-1.8V5.5C5.1,2.5,7.5,0,10.6,0
		C13.6,0,16.1,2.5,16.1,5.5z"/> </g> </symbol><symbol viewBox="0 0 52.7 67.9" id="icon-martinlutherkingday"><title>martinlutherkingday</title> <g> <path fill="#666666" d="M47.9,45.1c-1.2-1.2-3.1-1.2-4.2,0c-1.2,1.2-1.2,3.1,0,4.2c0.2,0.2,0.4,0.3,0.6,0.5c-0.5,1.7-1.2,3.4-2.1,5
		c-0.9,1.5-2,2.9-3.2,4.2c-3.9,3.9-9,6-14.4,6c-5.5,0-10.6-2.1-14.4-6c-0.6-0.6-1.5-0.6-2.1,0c-0.6,0.6-0.6,1.5,0,2.1
		c4.4,4.4,10.3,6.9,16.6,6.9s12.1-2.4,16.6-6.9c1.4-1.4,2.7-3.1,3.7-4.8c1.1-1.8,1.9-3.8,2.4-5.9c0-0.2,0.1-0.4,0-0.5
		c0.2-0.1,0.4-0.3,0.6-0.5C49.1,48.2,49.1,46.3,47.9,45.1z"/> <polygon fill="#FFFFFF" points="21,12.9 23.2,17.7 16.3,24.6 11.5,22.4 	"/> <path fill="#FFFFFF" d="M4.5,5.6c-0.4-0.4-0.4-1,0-1.4c1.1-1.1,2.5-1.7,4-1.7s2.9,0.6,4,1.7c0.4,0.4,0.4,1,0,1.4
		c-0.2,0.2-0.4,0.3-0.7,0.3c-0.2,0-0.5-0.1-0.7-0.3c-1.4-1.4-3.8-1.4-5.2,0C5.5,5.9,4.9,5.9,4.5,5.6z"/> <path fill="#666666" d="M11.5,22.4l4.8,2.2l6.9-6.9L21,12.9L11.5,22.4z M6.3,23.3L21.9,7.7l5,10.6l-9.9,9.9L6.3,23.3z"/> <path fill="#666666" d="M2.4,2.4C2.6,2.2,2.9,2,3.1,1.9c0.2-0.2,0.4-0.3,0.7-0.5C5.1,0.5,6.7,0,8.3,0c2.1,0,4.3,0.8,5.9,2.4
		c0.8,0.8,1.4,1.8,1.8,2.8c0.1,0.2,0.2,0.5,0.3,0.8c0.2,0.8,0.3,1.6,0.3,2.4c0,0.3,0,0.5,0,0.8c0,0.3-0.1,0.5-0.1,0.8
		c-0.1,0.5-0.3,1-0.5,1.5c-0.4,1-1,1.9-1.8,2.8c-1.6,1.6-3.8,2.4-5.9,2.4c-1.6,0-3.2-0.5-4.6-1.4c-0.2-0.2-0.4-0.3-0.7-0.5
		c-0.2-0.2-0.4-0.4-0.6-0.6C2.2,14,2,13.8,1.9,13.6c-0.3-0.4-0.7-0.9-0.9-1.4c-0.4-0.7-0.7-1.5-0.8-2.3C0.1,9.7,0.1,9.4,0,9.1
		c0-0.3,0-0.5,0-0.8C0,6.2,0.8,4.1,2.4,2.4z M4.5,4.1c-0.4,0.4-0.4,1,0,1.4s1,0.4,1.4,0c1.4-1.4,3.8-1.4,5.2,0
		c0.2,0.2,0.5,0.3,0.7,0.3c0.3,0,0.5-0.1,0.7-0.3c0.4-0.4,0.4-1,0-1.4c-1.1-1.1-2.5-1.7-4-1.7S5.6,3.1,4.5,4.1z"/> <path fill="#666666" d="M51.8,23.4c-1.2-1.2-3.2-1.2-4.4,0c1.2-1.2,1.2-3.2,0-4.4c-1.2-1.2-3.2-1.2-4.4,0l7-7
		c1.2-1.2,1.2-3.2,0-4.4s-3.2-1.2-4.4,0L26.4,26.7l4.4,4.4l4.4,4.4l4.4,4.4l12.1-12.1C53,26.6,53,24.6,51.8,23.4z"/> <path fill="#666666" d="M34.2,39.2L27.4,46c-0.2,0.2-0.5,0.3-0.7,0.3S26.2,46.2,26,46c-0.4-0.4-0.4-1,0-1.4l6.8-6.8L22.2,27.2
		L4.6,44.9l16.3,16.3l17.7-17.7L34.2,39.2z"/> </g> </symbol><symbol viewBox="0 0 60 44.9" id="icon-memorial"><title>memorial</title> <g> <path fill="#FFFFFF" d="M57.1,33.5v8.4c-5.8-0.2-8.9-1.7-12.2-3.2c-3.7-1.8-7.4-3.5-14.9-3.5c-0.9,0-1.7,0-2.6,0.1
		c-5.8,0.4-9.1,1.9-12.3,3.5c-3.2,1.6-6.3,3-12.2,3.2v-8.4c6.5-0.2,10-1.9,13.5-3.5c3.5-1.7,6.8-3.3,13.6-3.3
		c6.8,0,10.1,1.6,13.6,3.3C47.1,31.6,50.6,33.2,57.1,33.5z"/> <path fill="#FFFFFF" d="M57.1,22.1v8.4c-5.8-0.2-8.9-1.7-12.2-3.2c-3.6-1.8-7.4-3.6-14.9-3.6c-7.5,0-11.2,1.8-14.9,3.6
		c-3.2,1.6-6.3,3-12.2,3.2v-4c6.5-0.2,10-1.9,13.4-3.5c3.1-1.5,6-2.9,11.2-3.2l1.4-0.1v-1v-3.5c0.3,0,0.7,0,1,0
		c6.8,0,10.1,1.6,13.6,3.3C47.1,20.2,50.6,21.9,57.1,22.1z"/> <path fill="#FFFFFF" d="M57.1,9.7v9.4c-5.8-0.2-8.9-1.7-12.2-3.2c-3.6-1.7-7.4-3.6-14.9-3.6c-0.3,0-0.7,0-1,0V3c0.3,0,0.7,0,1,0
		c6.8,0,10.1,1.6,13.6,3.3C47.1,7.8,50.6,9.5,57.1,9.7z"/> <path fill="#666666" d="M29,15.3v3.5v1l-1.4,0.1c-5.2,0.3-8.2,1.7-11.2,3.2c-3.4,1.6-6.9,3.3-13.4,3.5v4c5.8-0.2,8.9-1.7,12.2-3.2
		c3.7-1.8,7.4-3.6,14.9-3.6c7.5,0,11.2,1.8,14.9,3.6c3.2,1.6,6.4,3,12.2,3.2v-8.4c-6.5-0.2-10-1.9-13.4-3.5
		c-3.5-1.7-6.8-3.3-13.6-3.3C29.7,15.3,29.3,15.3,29,15.3z M30,2.9c-0.3,0-0.7,0-1,0v9.4c0.3,0,0.7,0,1,0c7.5,0,11.2,1.8,14.9,3.6
		c3.2,1.6,6.3,3,12.2,3.2V9.7c-6.5-0.2-10-1.9-13.4-3.5C40.1,4.5,36.8,2.9,30,2.9z M43.6,29.9c-3.5-1.7-6.8-3.3-13.6-3.3
		c-6.8,0-10.1,1.6-13.6,3.3c-3.4,1.6-6.9,3.3-13.5,3.5v8.4c5.8-0.2,8.9-1.7,12.2-3.2c3.2-1.5,6.5-3.1,12.3-3.5
		c0.9-0.1,1.7-0.1,2.6-0.1c7.5,0,11.2,1.8,14.9,3.5c3.2,1.6,6.3,3,12.2,3.2v-8.4C50.6,33.2,47.1,31.6,43.6,29.9z M43.6,41.3
		C40.1,39.6,36.8,38,30,38c-0.8,0-1.6,0-2.4,0.1c-5.2,0.3-8.2,1.7-11.2,3.2c-3.6,1.8-7.4,3.5-14.9,3.5H0V26.6v-3.9V6.8h1.5
		c6.8,0,10.1-1.6,13.6-3.3c2.9-1.4,6-2.8,11-3.4v0l1.4-0.1L29,0V0c0.3,0,0.7,0,1,0c7.5,0,11.2,1.8,14.9,3.5
		c3.5,1.7,6.8,3.3,13.6,3.3H60v38h-1.5C51.1,44.8,47.3,43,43.6,41.3z"/> </g> </symbol><symbol viewBox="0 0 37.9 70.8" id="icon-newyears"><title>newyears</title> <g> <path fill="#666666" d="M36.1,55.5h-5.4V38.3c0-0.3-0.1-0.5-0.2-0.7c4.2-0.6,7.4-4.2,7.4-8.6l0,0l-1-29H21.6l-1,29
		c0,4.3,3.2,7.9,7.4,8.6c-0.1,0.2-0.2,0.5-0.2,0.7v17.3h-5.4c-0.8,0-1.5,0.7-1.5,1.5s0.7,1.5,1.5,1.5h13.7c0.8,0,1.5-0.7,1.5-1.5
		S36.9,55.5,36.1,55.5z M34,3l0.3,8.5H24.2L24.5,3H34z M23.6,29l0.5-14.6h10.3L34.9,29c0,3.1-2.6,5.6-5.7,5.6
		C26.1,34.7,23.6,32.1,23.6,29z"/> <path fill="#666666" d="M17.3,41.3L17.3,41.3l-0.5-14.6l0-0.1l0-0.1l-0.5-14.2H1l-1,29c0,4.3,3.2,7.9,7.4,8.6
		c-0.1,0.2-0.2,0.5-0.2,0.7v17.3H1.8c-0.8,0-1.5,0.7-1.5,1.5s0.7,1.5,1.5,1.5h13.7c0.8,0,1.5-0.7,1.5-1.5s-0.7-1.5-1.5-1.5h-5.4
		V50.5c0-0.3-0.1-0.5-0.2-0.7C14.1,49.2,17.3,45.6,17.3,41.3z M13.4,15.3l0.3,9.8H3.6l0.3-9.8H13.4z M8.7,46.9
		c-3.1,0-5.6-2.5-5.7-5.6l0.5-13.2h10.4l0.5,13.2C14.3,44.4,11.8,46.9,8.7,46.9z"/> <circle fill="#FFFFFF" cx="11.1" cy="34.3" r="1.5"/> <circle fill="#FFFFFF" cx="7" cy="38.2" r="1.5"/> <circle fill="#FFFFFF" cx="10.1" cy="42.2" r="1.5"/> <circle fill="#FFFFFF" cx="31.3" cy="20.9" r="1.5"/> <circle fill="#FFFFFF" cx="27.2" cy="24.9" r="1.5"/> <circle fill="#FFFFFF" cx="30.3" cy="28.9" r="1.5"/> </g> </symbol><symbol viewBox="0 0 49.5 66.6" id="icon-presidents"><title>presidents</title> <g> <path fill="#666666" d="M38.8,32.2c-2.5,0-4.5,2-4.5,4.5l0,0v14.2H15.6V36.7c0-2.5-2-4.5-4.5-4.5s-4.5,2-4.5,4.5l0,0v13.2h0v3.6
		c0,10.2,8.2,13.1,18.4,13.1c10.2,0,18.4-3,18.4-13.1v-3.6v0V36.7C43.3,34.2,41.3,32.2,38.8,32.2z"/> <path fill="#FFFFFF" d="M15.2,4.6v10c0,0.5-0.5,1-1,1s-1-0.5-1-1v-10c0-0.5,0.5-1,1-1S15.2,4.1,15.2,4.6z"/> <path fill="#666666" d="M10.5,24.8h28.9v-4.6H10.5V24.8z M48,24.8c0.8,0,1.5,0.7,1.5,1.5c0,0.8-0.7,1.5-1.5,1.5h-5.6H7.5h-6
		c-0.8,0-1.5-0.7-1.5-1.5c0-0.8,0.7-1.5,1.5-1.5h6V0h34.9v24.8H48z M15.2,14.6v-10c0-0.5-0.5-1-1-1s-1,0.5-1,1v10c0,0.5,0.5,1,1,1
		S15.2,15.2,15.2,14.6z"/> <rect x="10.5" y="20.2" fill="#FFFFFF" width="28.9" height="4.6"/> </g> </symbol><symbol viewBox="0 0 68.5 45.5" id="icon-thanksgiving"><title>thanksgiving</title> <g> <path fill="#666666" d="M42.7,12C39,9.7,34.6,8.4,29.9,8.4C16.5,8.4,5.6,19.3,5.6,32.6c0,1.3,0.1,2.6,0.3,3.8h47.9
		c0.2-1.3,0.3-2.5,0.3-3.8c0-1.3-0.1-2.5-0.3-3.7c0.1-0.1,0.3-0.3,0.4-0.4c4-4,4-10.5,0-14.5C51.2,10.9,46.5,10.2,42.7,12z
		 M20.3,17.8c-4.1,2.7-7,7-7.8,11.8c-0.1,0.5-0.5,0.8-1,0.8l-0.2,0c-0.5-0.1-0.9-0.6-0.8-1.2c0.9-5.4,4.1-10.1,8.7-13.1
		c0.5-0.3,1.1-0.2,1.4,0.3S20.8,17.5,20.3,17.8z M40.9,18.3c0.2-0.5,0.8-0.7,1.3-0.5c0.5,0.2,0.7,0.8,0.5,1.3
		c-0.9,1.9-0.5,4.1,0.9,5.6c1.6,1.6,4,1.9,5.9,0.8c0.5-0.3,1.1-0.1,1.4,0.4c0.3,0.5,0.1,1.1-0.4,1.4c-1.1,0.6-2.3,0.9-3.4,0.9
		c-1.8,0-3.5-0.7-4.9-2C40.1,24.1,39.6,20.9,40.9,18.3z"/> <path fill="#FFFFFF" d="M67.2,6.4c-1.2-1.2-3-1.5-4.4-0.8c0.7-1.5,0.4-3.2-0.8-4.4c-1.5-1.5-4-1.5-5.6,0c-1.5,1.5-1.4,4.2,0,5.6
		l-3.8,3.8c1.1,0.5,2.2,1.2,3.1,2.1c1.1,1.1,1.9,2.4,2.4,3.7l3.9-3.9c1.4,1.4,3.8,1.3,5.4-0.2C69,10.6,68.7,7.9,67.2,6.4z"/> <path fill="#FFFFFF" d="M57.5,39.5h-56C0.7,39.5,0,38.8,0,38s0.7-1.5,1.5-1.5h56c0.8,0,1.5,0.7,1.5,1.5S58.3,39.5,57.5,39.5z"/> <path fill="#FFFFFF" d="M54.5,45.5h-48C5.7,45.5,5,44.8,5,44s0.7-1.5,1.5-1.5h48c0.8,0,1.5,0.7,1.5,1.5S55.3,45.5,54.5,45.5z"/> </g> </symbol></svg>