<?xml version="1.0" encoding="utf-8"?>
<!-- Generator: Adobe Illustrator 17.0.0, SVG Export Plug-In . SVG Version: 6.00 Build 0)  -->
<!DOCTYPE svg PUBLIC "-//W3C//DTD SVG 1.1//EN" "http://www.w3.org/Graphics/SVG/1.1/DTD/svg11.dtd">
<svg version="1.1" id="Layer_1" xmlns="http://www.w3.org/2000/svg" xmlns:xlink="http://www.w3.org/1999/xlink" x="0px" y="0px"
	 width="52.533px" height="63.12px" viewBox="-8.369 2.643 52.533 63.12" enable-background="new -8.369 2.643 52.533 63.12"
	 xml:space="preserve">
<g id="background">
</g>
<g id="artwork">
	<polygon fill="#983A92" points="-8.368,48.461 30.383,15.944 39.168,65.762 	"/>
	<polygon opacity="0.5" fill="#7E378F" enable-background="new    " points="30.383,15.944 39.168,65.762 15.399,57.111 	"/>
	
		<rect x="-8.497" y="49.192" transform="matrix(-0.9397 -0.342 0.342 -0.9397 14.3579 109.082)" fill="#662D91" width="50.587" height="8.167"/>
	<path opacity="0.5" fill="#EB8F8E" enable-background="new    " d="M7.026,38.122c-0.978,2.688-3.952,4.074-6.639,3.096
		c-0.028-0.01-0.056-0.021-0.081-0.04L7.24,35.37C7.419,36.254,7.361,37.201,7.026,38.122z"/>
	<path opacity="0.5" fill="#EB8F8E" enable-background="new    " d="M30.792,54.019l-9.745-3.547
		c0.978-2.688,3.952-4.074,6.639-3.096C30.384,48.358,31.77,51.332,30.792,54.019z"/>
	<path opacity="0.5" fill="#EB8F8E" enable-background="new    " d="M34.778,40.845c-0.537-0.015-1.085-0.118-1.621-0.313
		c-2.688-0.978-4.074-3.952-3.096-6.639c0.527-1.447,1.628-2.515,2.955-3.032L34.778,40.845z"/>
	<path opacity="0.5" fill="#EB8F8E" enable-background="new    " d="M32.097,25.698c-2.553-1.057-3.834-3.939-2.88-6.561
		c0.294-0.808,0.769-1.497,1.368-2.035L32.097,25.698z"/>
	<circle opacity="0.5" fill="#EB8F8E" enable-background="new    " cx="19.343" cy="37.056" r="5.185"/>
	<polygon fill="#9FD0CB" points="30.489,15.652 33.534,7.286 44.164,15.814 	"/>
	
		<rect x="31.894" y="3.703" transform="matrix(-0.9397 -0.342 0.342 -0.9397 59.2699 31.2941)" fill="#29ABE2" width="1" height="13.437"/>
	<circle fill="#EB8F8E" cx="34.617" cy="4.311" r="1.667"/>
</g>
<g id="cal-col" display="none">
</g>
<g id="_x33_-col" display="none">
</g>
<g id="comments" display="none">
	
		<rect x="-27.373" y="-55.144" display="inline" opacity="0.5" fill="#FF00FF" enable-background="new    " width="86" height="60"/>
</g>
</svg>
